<?xml version="1.0" encoding="UTF-8" standalone="no"?>
<!-- Created with Inkscape (http://www.inkscape.org/) -->

<svg
   width="551.74402"
   height="548.07098"
   viewBox="0 0 145.98227 145.01045"
   version="1.1"
   id="svg5"
   inkscape:version="1.1.1 (3bf5ae0d25, 2021-09-20)"
   sodipodi:docname="simpleLogoGrey.svg"
   xmlns:inkscape="http://www.inkscape.org/namespaces/inkscape"
   xmlns:sodipodi="http://sodipodi.sourceforge.net/DTD/sodipodi-0.dtd"
   xmlns="http://www.w3.org/2000/svg"
   xmlns:svg="http://www.w3.org/2000/svg">
  <sodipodi:namedview
     id="namedview7"
     pagecolor="#505050"
     bordercolor="#ffffff"
     borderopacity="1"
     inkscape:pageshadow="0"
     inkscape:pageopacity="0"
     inkscape:pagecheckerboard="false"
     inkscape:document-units="mm"
     showgrid="false"
     units="px"
     width="1000px"
     inkscape:zoom="0.73406285"
     inkscape:cx="322.86064"
     inkscape:cy="301.06414"
     inkscape:window-width="1920"
     inkscape:window-height="1036"
     inkscape:window-x="0"
     inkscape:window-y="44"
     inkscape:window-maximized="1"
     inkscape:current-layer="layer3"
     fit-margin-top="0"
     fit-margin-left="0"
     fit-margin-right="0"
     fit-margin-bottom="0" />
  <defs
     id="defs2" />
  <circle
     style="fill:#808080;fill-opacity:1;stroke-width:1.01671"
     id="path2632"
     cx="74.432938"
     cy="78.274765"
     r="42.5" />
  <g
     inkscape:groupmode="layer"
     id="layer3"
     inkscape:label="LOGO"
     transform="translate(-58.067066,-54.225232)">
    <path
       style="fill:#808080;fill-opacity:1;stroke-width:1"
       id="path3013"
       d="m 139.87549,85.710008 c 5.31822,-2.801266 10.6031,-5.672082 16.12334,-8.06591 1.81183,-0.785694 3.65759,-1.4907 5.48639,-2.23605 4.49121,-1.645287 9.01324,-3.247332 13.63527,-4.493548 1.2984,-0.350078 3.3455,-0.882637 4.79518,-0.903798 0.38825,-0.0057 0.76664,0.123838 1.14995,0.185756 -0.17452,0.849243 -0.34096,1.700188 -0.52356,2.547734 -1.30559,6.060003 -1.51328,7.873076 -4.13697,14.07819 -3.03201,7.170814 -6.68721,13.413848 -10.88591,19.983818 -2.33427,3.65258 -4.86831,7.17358 -7.30247,10.76037 -8.40805,11.93307 -17.69659,23.1922 -27.10042,34.34173 0,0 24.3556,-10.33672 24.3556,-10.33672 v 0 c 9.38904,-11.22139 18.64719,-22.56661 26.98781,-34.60316 2.41288,-3.63506 4.93749,-7.198388 7.23864,-10.90519 4.18526,-6.741813 7.75848,-13.113721 10.65507,-20.489023 1.40561,-3.578961 3.66364,-10.739012 3.69574,-14.973327 0.013,-1.712719 -0.63223,-3.366688 -0.94834,-5.050033 -0.6007,-0.374166 -1.12769,-0.908016 -1.80211,-1.1225 -1.54157,-0.49026 -3.78133,0.01945 -5.21059,0.349168 -4.69415,1.08291 -9.22938,2.792299 -13.79886,4.283197 -1.85463,0.71262 -3.72683,1.38114 -5.56392,2.137859 -5.57702,2.297245 -10.91311,5.09515 -16.22184,7.942525 0,0 -20.628,16.568912 -20.628,16.568912 z" />
    <path
       style="fill:#808080;fill-opacity:1;stroke-width:1"
       id="path3037"
       d="m 89.670241,134.4549 c -0.200629,0.24485 -0.38408,0.50484 -0.601885,0.73453 -0.408048,0.43033 -0.864076,0.81334 -1.273053,1.24279 -1.209443,1.26999 -3.730374,4.15141 -4.647359,5.2881 -3.173132,3.9334 -4.949566,6.50768 -7.972737,10.6777 -4.124658,5.97781 -8.099224,12.08202 -11.426748,18.54769 -1.730537,3.36258 -3.332369,6.83354 -4.395253,10.47607 -0.420378,1.44065 -0.631785,2.93421 -0.947677,4.40131 -0.2555,2.88 -0.559636,4.03312 -0.10306,6.8135 0.137464,0.83711 0.310808,1.68916 0.68236,2.45178 0.377894,0.77564 0.797965,1.63069 1.529501,2.08815 3.212653,2.00901 6.133631,1.75482 9.761011,2.04255 6.062482,0.12946 12.089264,-0.51171 18.068567,-1.43389 0,0 21.139792,-15.91078 21.139792,-15.91078 v 0 c -1.07609,0.20106 -2.14707,0.43163 -3.22825,0.60317 -4.79759,0.76119 -9.648266,1.1542 -14.502264,1.2901 -1.703681,-0.0218 -3.407447,-0.0376 -5.111041,-0.0654 -1.133858,-0.0185 -2.307648,0.22646 -3.401234,-0.0736 -0.481865,-0.13223 -0.777679,-0.67534 -0.985023,-1.12997 -0.280643,-0.61534 -0.366437,-1.30903 -0.434242,-1.98194 -0.248954,-2.47068 0.08349,-3.60422 0.434515,-6.14746 0.363434,-1.36649 0.639442,-2.75927 1.0903,-4.09946 1.165759,-3.46524 2.839265,-6.90716 4.560829,-10.11269 3.411289,-6.35177 7.397851,-12.37386 11.554867,-18.25609 3.424313,-4.61539 4.493093,-6.21004 8.061513,-10.46986 1.86973,-2.23199 2.84118,-3.17671 4.70426,-5.15225 1.64919,-1.74875 0.70363,-0.80284 1.88258,-1.95889 0,0 -24.440269,10.1349 -24.440269,10.1349 z" />
  </g>
</svg>
